<?xml version="1.0" encoding="utf-8" ?>
<svg xmlns="http://www.w3.org/2000/svg" xmlns:xlink="http://www.w3.org/1999/xlink" width="1024" height="1023">
	<path fill="white" d="M0 0L1024 0L1024 1024L0 1024L0 0Z"/>
	<path d="M641.519 141.411C642.88 141.39 643.873 141.359 645.145 141.946C645.821 142.722 646.211 143.307 646.35 144.329C647.366 151.828 640.409 165.648 635.81 171.602C615.349 198.092 558.701 190.751 528.838 190.824Q502.925 191.029 477.225 194.345C423.823 201.605 374.125 222.769 340.898 266.651C314.474 301.547 300.136 347.673 306.287 391.41C309.166 411.876 317.312 434.279 334.502 447.02C343.512 453.698 354.702 457.362 365.931 455.594C378.091 453.68 388.128 446.554 395.196 436.621C405.124 422.669 408.325 404.49 405.419 387.769C401.869 367.348 389.812 350.937 370.233 343.492C365.854 341.827 358.72 340.883 355.015 338.289C355.15 338.223 355.279 338.143 355.42 338.092C362.04 335.721 379.838 341.143 386.116 344.163C401.31 351.473 409.816 362.944 415.231 378.597Q415.627 380.389 415.956 382.195Q416.284 384.001 416.545 385.818Q416.806 387.635 416.999 389.46Q417.192 391.286 417.316 393.117Q417.44 394.948 417.496 396.783Q417.552 398.618 417.539 400.453Q417.525 402.289 417.444 404.123Q417.362 405.956 417.212 407.786Q417.062 409.615 416.843 411.438Q416.624 413.26 416.338 415.073Q416.051 416.886 415.697 418.687Q415.343 420.488 414.921 422.275Q414.5 424.061 414.012 425.831Q413.524 427.6 412.97 429.35Q412.416 431.1 411.797 432.828Q411.178 434.556 410.495 436.26C403.935 452.593 391.903 464.742 375.665 471.541C352.373 481.293 323.682 479.074 300.684 469.576C275.827 459.311 257.554 439.933 247.283 415.234C231.411 377.068 232.696 331.266 248.354 293.205C285.718 202.382 390.476 167.899 481.728 170.02C517.445 170.85 585.674 182.933 616.815 169.653C629.792 164.119 636.375 154.064 641.519 141.411Z"/>
	<path d="M572.297 553.671C581.654 552.611 591.083 550.542 600.267 548.493C607.501 546.878 625.331 540.86 631.698 541.95L629.171 544.607C629.337 545.035 647.381 561.158 649.582 563.614C658.994 574.119 666.813 585.795 673.537 598.173C686.838 622.658 696.07 649.201 704.847 675.568C719.439 719.401 735.342 791.444 781.937 811.685C794.381 817.09 809.983 817.688 822.625 812.567C833.88 808.009 842.443 798.428 847.059 787.329C854.892 768.495 854.053 745.44 846.181 726.778C834.559 699.226 806.748 680.224 779.852 669.446C764.963 663.479 749.034 658.949 733.416 655.367C767.128 650.357 808.838 658.579 836.338 679.066C854.654 692.711 866.118 712.938 869.327 735.474C873.13 762.193 866.531 791.81 850.208 813.504C831.715 838.081 799.955 857.355 769.374 861.406C744.195 864.74 718.815 858.693 698.647 843.06C687.136 834.138 676.515 823.062 668.522 810.898C648.67 780.689 638.522 743.952 628.612 709.49Q619.121 676.445 610.432 643.181C604.681 621.328 599.489 599.018 590.175 578.332C585.884 568.8 580.884 559.932 572.297 553.671Z"/>
	<path d="M498.326 522.463C502.813 504.12 509.708 485.892 515.546 467.92Q530.086 422.415 547.586 377.964C564.022 335.766 580.408 298.425 604.138 259.565C631.396 214.927 670.859 161.88 724.711 149.114C742.394 144.922 762.082 144.579 777.948 154.575Q778.988 155.237 779.994 155.95Q781 156.663 781.97 157.424Q782.939 158.186 783.87 158.995Q784.8 159.804 785.689 160.658Q786.579 161.513 787.424 162.41Q788.27 163.307 789.07 164.245Q789.87 165.183 790.623 166.16Q791.376 167.137 792.079 168.149Q792.782 169.162 793.434 170.209Q794.086 171.255 794.685 172.333Q795.285 173.41 795.83 174.516Q796.375 175.622 796.865 176.754Q797.354 177.885 797.787 179.04Q798.22 180.194 798.595 181.369Q798.97 182.544 799.286 183.735Q799.602 184.927 799.859 186.133C803.832 204.181 798.943 223.647 789.115 239.028C775.357 260.56 753.178 272.791 728.743 278.205C745.473 263.757 757.8 257.048 765.304 234.362C769.669 221.169 770.944 204.302 764.448 191.553C761.476 185.719 756.807 181.613 750.505 179.704C741.023 176.833 730.132 179.799 721.605 184.217C709.134 190.679 698.953 201.098 690.143 211.861C640.585 272.401 617.001 372.409 593.091 446.674C599.439 446.527 606.096 444.978 612.183 443.253C671.955 426.305 725.74 362.38 756.261 311.223C759.766 305.348 763.391 299.296 766.203 293.055C768.434 288.1 769.929 282.611 772.616 277.899C772.692 277.767 772.771 277.637 772.848 277.505C774.169 277.129 774.712 277.422 775.88 278.138C776.776 278.688 777.623 279.357 778.466 279.987C786.821 284.813 790.435 291.631 794.975 299.766C798.718 306.476 802.481 313.174 808.183 318.45C823.971 333.055 849.538 327.796 868.217 322.786C895.656 315.427 921.663 301.857 950.605 304.261C933.095 311.213 914.977 316.554 899.187 327.194C868.078 348.155 849.74 382.764 828.382 412.505C806.157 443.451 780.708 470.26 748.596 491.015Q740.062 496.461 731.219 501.391Q722.377 506.322 713.258 510.72Q704.139 515.118 694.776 518.967Q685.412 522.817 675.837 526.105C673 527.072 656.398 532.432 655.61 533.985C659.21 538.511 674.306 541.747 676.332 545.73C676.901 546.073 677.461 546.442 678.035 546.775Q678.51 547.046 678.961 547.357Q679.412 547.668 679.834 548.017Q680.257 548.365 680.648 548.748Q681.039 549.131 681.396 549.545Q681.753 549.96 682.074 550.404Q682.394 550.848 682.676 551.317Q682.957 551.787 683.198 552.279Q683.438 552.771 683.636 553.281C683.409 554.284 683.637 554.391 682.583 554.936C675.012 558.849 642.329 544.752 632.623 542.189L631.698 541.95C625.331 540.86 607.501 546.878 600.267 548.493C591.083 550.542 581.654 552.611 572.297 553.671C568.484 553.469 564.748 554.445 560.953 553.904C561.805 554.156 562.551 554.495 563.349 554.884C564.304 557.811 561.099 566 560.203 569.223Q554.103 591.959 546.466 614.226Q538.828 636.493 529.689 658.187C493.432 744.047 433.522 824.977 344.781 860.945C289.614 883.305 223.115 884.738 168.009 861.396C122.293 842.032 82.3538 808.029 63.5342 761.265C45.7659 717.113 44.9454 665.608 63.7871 621.649C80.1249 583.531 109.999 549.946 149.033 534.474C181.07 521.777 214.692 523.305 246.126 536.822C252.115 536.058 258.088 534.175 263.933 532.675C271.712 530.679 279.412 528.904 287.339 527.598C322.602 521.788 358.08 519.911 393.763 519.576C408.376 469.552 418.487 418.416 435.39 369.014C458.365 301.87 502.867 238.515 567.76 206.745C550.02 226.558 538.443 251.25 528.122 275.481C524.131 284.851 520.099 294.193 517.207 303.976C513.734 315.725 511.417 327.923 508.803 339.893L495.482 402.475L470.202 521.988C479.578 522.185 488.947 522.492 498.326 522.463Z"/>
	<path fill="#FEFEFE" d="M470.202 521.988C479.578 522.185 488.947 522.492 498.326 522.463L496.222 528.994C487.221 528.415 478.224 527.924 469.229 527.246C469.488 525.487 469.87 523.735 470.202 521.988Z"/>
	<path fill="white" d="M624.379 523.029C634.975 518.65 644.963 512.767 654.918 507.117C704.042 479.241 748.173 443.491 791.972 408.076C801.593 400.298 823.275 378.832 831.811 374.481C826.899 384.441 812.411 403.199 805.276 412.561C759.03 473.244 715.474 501.466 643.495 525.881Q640.99 526.733 638.473 527.546C633.74 526.14 628.996 524.787 624.379 523.029Z"/>
	<path fill="#FEFEFE" d="M772.848 277.505C774.169 277.129 774.712 277.422 775.88 278.138C776.776 278.688 777.623 279.357 778.466 279.987C781.265 294.82 778.53 308.4 772.703 322.165C753.673 367.119 702.768 418.681 666.086 449.77Q642.812 469.378 617.657 486.506C603.512 496.269 588.64 506.564 572.648 513.077C577.941 493.729 584.159 474.695 590.297 455.605C592.447 455.544 594.604 455.48 596.749 455.316C644.002 451.701 703.692 399.196 733.317 364.833C753.992 340.851 775.277 310.524 772.848 277.505Z"/>
	<path fill="#FEFEFE" d="M840.077 362.781C837.431 366.775 834.818 370.743 831.811 374.481C823.275 378.832 801.593 400.298 791.972 408.076C748.173 443.491 704.042 479.241 654.918 507.117C644.963 512.767 634.975 518.65 624.379 523.029C622.99 523.502 622.002 523.621 621.026 524.738C622.855 527.477 668.851 542.69 676.332 545.73C676.901 546.073 677.461 546.442 678.035 546.775Q678.51 547.046 678.961 547.357Q679.412 547.668 679.834 548.017Q680.257 548.365 680.648 548.748Q681.039 549.131 681.396 549.545Q681.753 549.96 682.074 550.404Q682.394 550.848 682.676 551.317Q682.957 551.787 683.198 552.279Q683.438 552.771 683.636 553.281C683.409 554.284 683.637 554.391 682.583 554.936C675.012 558.849 642.329 544.752 632.623 542.189L631.698 541.95C625.331 540.86 607.501 546.878 600.267 548.493C591.083 550.542 581.654 552.611 572.297 553.671C568.484 553.469 564.748 554.445 560.953 553.904L560.113 553.308C561.472 551.649 563.198 551.256 565.266 550.742C571.864 549.102 578.913 548.785 585.628 547.618Q604.287 544.301 622.459 538.925C620.196 538.072 617.873 537.346 615.582 536.572C610.697 539.214 594.218 542.824 588.906 541.607C579.647 542.746 570.542 545.041 561.262 546.07C538.399 548.605 515.654 547.469 492.809 545.37L488.539 561.06Q478.21 596.528 465.841 631.337C440.43 703.883 405.514 783.565 335.238 822.97C299.607 842.948 260.183 853.425 219.241 850.889C209.485 850.284 199.84 849.353 190.393 846.704C199.634 847.262 208.984 848.038 218.242 847.783Q221.061 847.681 223.875 847.488Q226.69 847.295 229.496 847.012Q232.303 846.729 235.099 846.356Q237.896 845.984 240.678 845.521Q243.461 845.059 246.228 844.508Q248.994 843.957 251.742 843.318Q254.489 842.679 257.215 841.952Q259.941 841.224 262.642 840.41Q265.343 839.596 268.016 838.696Q270.69 837.796 273.333 836.811Q275.976 835.825 278.586 834.756Q281.197 833.686 283.771 832.534Q286.346 831.381 288.883 830.147Q291.419 828.912 293.915 827.597Q296.41 826.282 298.863 824.888Q301.315 823.493 303.721 822.021C351.538 793.079 387.685 746.486 411.522 696.5C421.933 674.669 430.192 651.813 437.94 628.921Q452.637 586.143 463.276 542.179C438.711 538.412 413.972 538.449 389.247 536.921C383.288 535.973 376.99 537 370.972 537.025Q349.746 537.098 328.609 539.045Q307.473 540.992 286.591 544.798C277.619 546.45 268.859 548.682 259.961 550.616C241.002 555.783 222.466 561.355 204.067 568.299C188.705 573.034 171.264 582.318 157.847 591.19C154.432 593.448 144.256 601.379 141.091 601.34C151.293 591.85 164.277 583.677 176.329 576.719C249.502 534.471 342.75 524.544 425.629 531.158C476.809 535.242 536.073 548.855 586.035 532.692C604.577 526.694 622.003 517.71 639.068 508.41C684.196 483.815 725.829 453.133 766.067 421.305C790.746 401.785 814.882 381.644 840.077 362.781Z"/>
	<path fill="#D09890" d="M588.906 541.607C597.57 538.295 606.195 533.757 615.582 536.572C610.697 539.214 594.218 542.824 588.906 541.607Z"/>
	<path fill="white" d="M259.961 550.616C268.859 548.682 277.619 546.45 286.591 544.798Q307.473 540.992 328.609 539.045Q349.746 537.098 370.972 537.025C376.99 537 383.288 535.973 389.247 536.921C369.14 617.464 334.59 763.11 259.772 808.161C234.607 823.314 201.622 828.949 173.011 821.803C145.111 814.836 122.381 796.749 107.746 772.196C90.329 742.976 84.2766 706.321 92.741 673.24C99.1578 648.162 120.556 617.387 141.091 601.34C144.256 601.379 154.432 593.448 157.847 591.19C171.264 582.318 188.705 573.034 204.067 568.299C222.466 561.355 241.002 555.783 259.961 550.616Z"/>
	<path d="M259.961 550.616C275.546 567.155 282.33 587.188 281.695 609.817C281.106 630.751 273.205 652.167 257.78 666.709C244.554 679.177 225.609 686.582 207.395 685.877C194.886 685.393 185.329 680.773 176.7 671.861C190.63 678.624 203.059 681.471 218.15 676.237C231.819 671.496 242.629 661.51 248.849 648.49C255.51 634.547 256.896 617.346 251.699 602.713C247.453 590.759 238.515 578.879 226.805 573.429C221.751 571.077 216.293 570.161 210.811 569.396C208.599 569.088 206.184 569.004 204.067 568.299C222.466 561.355 241.002 555.783 259.961 550.616Z"/>
</svg>
